<svg id="visual" viewBox="0 0 1920 300" width="1920" height="300" xmlns="http://www.w3.org/2000/svg" xmlns:xlink="http://www.w3.org/1999/xlink" version="1.1"><rect x="0" y="0" width="1920" height="300" fill="#dedede"></rect><path d="M0 216L26.7 213.5C53.3 211 106.7 206 160 203.5C213.3 201 266.7 201 320 204.5C373.3 208 426.7 215 480 218.8C533.3 222.7 586.7 223.3 640 220.7C693.3 218 746.7 212 800 208.3C853.3 204.7 906.7 203.3 960 206.3C1013.3 209.3 1066.7 216.7 1120 216.8C1173.3 217 1226.7 210 1280 206.5C1333.3 203 1386.7 203 1440 207.3C1493.3 211.7 1546.7 220.3 1600 221C1653.3 221.7 1706.7 214.3 1760 214.2C1813.3 214 1866.7 221 1893.3 224.5L1920 228L1920 301L1893.3 301C1866.7 301 1813.3 301 1760 301C1706.7 301 1653.3 301 1600 301C1546.7 301 1493.3 301 1440 301C1386.7 301 1333.3 301 1280 301C1226.7 301 1173.3 301 1120 301C1066.7 301 1013.3 301 960 301C906.7 301 853.3 301 800 301C746.7 301 693.3 301 640 301C586.7 301 533.3 301 480 301C426.7 301 373.3 301 320 301C266.7 301 213.3 301 160 301C106.7 301 53.3 301 26.7 301L0 301Z" fill="#e9e9e9"></path><path d="M0 245L26.7 243.5C53.3 242 106.7 239 160 238.8C213.3 238.7 266.7 241.3 320 241.2C373.3 241 426.7 238 480 235.8C533.3 233.7 586.7 232.3 640 234.3C693.3 236.3 746.7 241.7 800 243C853.3 244.3 906.7 241.7 960 242.3C1013.3 243 1066.7 247 1120 247.5C1173.3 248 1226.7 245 1280 245.2C1333.3 245.3 1386.7 248.7 1440 247C1493.3 245.3 1546.7 238.7 1600 238.7C1653.3 238.7 1706.7 245.3 1760 245C1813.3 244.7 1866.7 237.3 1893.3 233.7L1920 230L1920 301L1893.3 301C1866.7 301 1813.3 301 1760 301C1706.7 301 1653.3 301 1600 301C1546.7 301 1493.3 301 1440 301C1386.7 301 1333.3 301 1280 301C1226.7 301 1173.3 301 1120 301C1066.7 301 1013.3 301 960 301C906.7 301 853.3 301 800 301C746.7 301 693.3 301 640 301C586.7 301 533.3 301 480 301C426.7 301 373.3 301 320 301C266.7 301 213.3 301 160 301C106.7 301 53.3 301 26.7 301L0 301Z" fill="#f3f3f3"></path><path d="M0 261L26.7 262.3C53.3 263.7 106.7 266.3 160 267.8C213.3 269.3 266.7 269.7 320 268.7C373.3 267.7 426.7 265.3 480 265.5C533.3 265.7 586.7 268.3 640 267.7C693.3 267 746.7 263 800 264.3C853.3 265.7 906.7 272.3 960 276C1013.3 279.7 1066.7 280.3 1120 280.7C1173.3 281 1226.7 281 1280 278.3C1333.3 275.7 1386.7 270.3 1440 269.8C1493.3 269.3 1546.7 273.7 1600 273C1653.3 272.3 1706.7 266.7 1760 267.2C1813.3 267.7 1866.7 274.3 1893.3 277.7L1920 281L1920 301L1893.3 301C1866.7 301 1813.3 301 1760 301C1706.7 301 1653.3 301 1600 301C1546.7 301 1493.3 301 1440 301C1386.7 301 1333.3 301 1280 301C1226.7 301 1173.3 301 1120 301C1066.7 301 1013.3 301 960 301C906.7 301 853.3 301 800 301C746.7 301 693.3 301 640 301C586.7 301 533.3 301 480 301C426.7 301 373.3 301 320 301C266.7 301 213.3 301 160 301C106.7 301 53.3 301 26.7 301L0 301Z" fill="#fefefe"></path></svg>