<svg id="visual" viewBox="0 0 1920 300" width="1920" height="300" xmlns="http://www.w3.org/2000/svg" xmlns:xlink="http://www.w3.org/1999/xlink" version="1.1"><rect x="0" y="0" width="1920" height="300" fill="#dedede"></rect><path d="M0 217L26.7 223.3C53.3 229.7 106.7 242.3 160 243.3C213.3 244.3 266.7 233.7 320 229C373.3 224.3 426.7 225.7 480 231C533.3 236.3 586.7 245.7 640 250.5C693.3 255.3 746.7 255.7 800 250C853.3 244.3 906.7 232.7 960 232.8C1013.3 233 1066.7 245 1120 244C1173.3 243 1226.7 229 1280 223.7C1333.3 218.3 1386.7 221.7 1440 228.8C1493.3 236 1546.7 247 1600 246.5C1653.3 246 1706.7 234 1760 228C1813.3 222 1866.7 222 1893.3 222L1920 222L1920 301L1893.3 301C1866.7 301 1813.3 301 1760 301C1706.7 301 1653.3 301 1600 301C1546.7 301 1493.3 301 1440 301C1386.7 301 1333.3 301 1280 301C1226.7 301 1173.3 301 1120 301C1066.7 301 1013.3 301 960 301C906.7 301 853.3 301 800 301C746.7 301 693.3 301 640 301C586.7 301 533.3 301 480 301C426.7 301 373.3 301 320 301C266.7 301 213.3 301 160 301C106.7 301 53.3 301 26.7 301L0 301Z" fill="#FEFEFE"></path></svg>